<?xml version="1.0" standalone="no"?>
<!DOCTYPE svg PUBLIC "-//W3C//DTD SVG 20010904//EN"
 "http://www.w3.org/TR/2001/REC-SVG-20010904/DTD/svg10.dtd">
<svg version="1.0" xmlns="http://www.w3.org/2000/svg"
 width="71.000000pt" height="30.000000pt" viewBox="0 0 71.000000 30.000000"
 preserveAspectRatio="xMidYMid meet">

<g transform="translate(0.000000,30.000000) scale(0.100000,-0.100000)"
fill="#000000" stroke="none">
<path d="M222 288 c-15 -15 -15 -41 0 -56 22 -22 33 -12 33 28 0 40 -11 50
-33 28z"/>
<path d="M37 283 c-12 -11 -7 -47 8 -67 20 -26 19 -46 -1 -46 -9 0 -14 -6 -11
-12 6 -19 28 -16 41 5 9 14 6 26 -11 57 -27 46 -28 50 -8 50 8 0 15 5 15 10 0
11 -23 14 -33 3z"/>
<path d="M90 280 c0 -5 5 -10 10 -10 6 0 10 -28 10 -65 0 -37 4 -65 10 -65 6
0 10 28 10 65 0 37 4 65 10 65 6 0 10 5 10 10 0 6 -13 10 -30 10 -16 0 -30 -4
-30 -10z"/>
<path d="M167 218 c-16 -65 -16 -104 -1 -64 8 20 44 21 44 1 0 -8 4 -15 9 -15
8 0 -21 136 -31 146 -2 2 -12 -28 -21 -68z m27 -3 c3 -8 1 -15 -4 -15 -6 0
-10 7 -10 15 0 8 2 15 4 15 2 0 6 -7 10 -15z"/>
<path d="M380 245 l-5 -50 -27 45 -27 45 1 -75 c1 -67 2 -70 7 -26 l6 49 25
-44 25 -44 3 38 c2 20 2 54 0 75 -4 35 -4 34 -8 -13z"/>
<path d="M410 216 c0 -68 2 -76 19 -76 61 0 64 139 3 148 -21 3 -22 0 -22 -72z
m38 42 c16 -16 15 -73 -1 -87 -20 -16 -27 -3 -27 51 0 49 7 57 28 36z"/>
<path d="M490 215 c0 -43 4 -75 10 -75 6 0 10 32 10 75 0 43 -4 75 -10 75 -6
0 -10 -32 -10 -75z"/>
<path d="M588 243 l-3 -48 -23 43 c-12 23 -25 42 -27 42 -3 0 -4 -33 -3 -72 1
-68 2 -69 7 -24 l6 49 27 -49 28 -49 0 78 c0 85 -7 104 -12 30z"/>
<path d="M630 271 c-17 -33 -12 -96 10 -116 28 -25 50 -13 50 30 0 24 -4 35
-15 35 -8 0 -15 -4 -15 -10 0 -5 5 -10 10 -10 13 0 13 -27 1 -35 -16 -9 -41
25 -41 54 0 31 23 57 40 46 5 -3 10 1 10 9 0 23 -37 20 -50 -3z"/>
<path d="M273 252 c-1 -22 0 -24 9 -8 6 10 6 22 2 26 -5 5 -10 -3 -11 -18z"/>
<path d="M252 73 c-2 -44 1 -53 18 -58 11 -3 29 -3 40 0 16 5 20 15 20 56 0
31 -4 48 -10 44 -5 -3 -10 -24 -10 -46 0 -36 -2 -40 -22 -37 -19 2 -24 11 -29
48 l-6 45 -1 -52z"/>
<path d="M361 63 c0 -45 2 -53 9 -35 5 12 18 22 29 22 28 0 39 40 15 57 -10 7
-26 13 -36 13 -15 0 -18 -8 -17 -57z m49 17 c0 -13 -7 -20 -20 -20 -13 0 -20
7 -20 20 0 13 7 20 20 20 13 0 20 -7 20 -20z"/>
</g>
</svg>
